<svg xmlns="http://www.w3.org/2000/svg" viewBox="0 0 288 96.75"><defs><path id="a" fill="#fafeff" d="M31.8 65.82q-1.76 0-3.8-.25a52 52 0 0 1-3.98-.64q-1.94-.4-3.4-.84-.54-.24-.9-.67a1.4 1.4 0 0 1-.28-1.08q.09-1.24.14-2.44l.1-2.45q.1-1.1.77-1.27t1.18.43q1.13.95 2.78 1.73a18 18 0 0 0 6.98 1.61q2.55 0 3.86-.63a2.1 2.1 0 0 0 1.33-2.07q0-1.1-1.2-1.78-1.2-.7-3.07-1.25l-3.95-1.15q-2.1-.6-3.97-1.54a10 10 0 0 1-3.08-2.4 5.7 5.7 0 0 1-1.18-3.7q0-2.43 1.56-4.07a10 10 0 0 1 4.31-2.5q2.75-.85 6.25-.85 1.85 0 4.28.28 2.44.27 4.19.82 1.3.5 1.3 1.68.04 1 .04 2.03v2.02q0 1.26-.65 1.4-.65.15-1.19-.35a12 12 0 0 0-3.44-1.64 13 13 0 0 0-4.1-.66q-2.13 0-3.63.67t-1.49 1.83q0 1 1.2 1.64t3.05 1.17 3.97 1.17 3.97 1.63a10 10 0 0 1 3.06 2.44q1.2 1.47 1.2 3.76a6.7 6.7 0 0 1-3.12 5.77q-3.1 2.16-9.1 2.15m18.16-.14-1.25-.03a7 7 0 0 1-1.49-.17 1.4 1.4 0 0 1-.73-.47 1.5 1.5 0 0 1-.31-.98l.01-7.92q.03-3.34.1-6.04a221 221 0 0 1 .53-10.46q.15-1.1 1.1-1.25.94-.2 2.54-.2a18 18 0 0 1 2.64.2q.49.1.83.4t.22.85q-.15.85-.3 1.51-.15.68-.16 1.22 0 .86.35.98.35.13.7-.67a8 8 0 0 1 2.97-3.43 7.3 7.3 0 0 1 4.01-1.25q2.25 0 4.1 1.01 1.83 1.02 2.89 3.06.95 2.25 2 .05a8 8 0 0 1 3-3 8.7 8.7 0 0 1 4.47-1.12q2.5 0 4.59 1.45 2.1 1.43 3.4 4.25a18 18 0 0 1 1.48 6.9l.25 6.24q.15 3.48.15 7.22 0 .66-.33 1.01-.31.35-.8.44a19 19 0 0 1-2.42.2l-1.46-.03a9 9 0 0 1-1.68-.17q-.47-.09-.86-.44a1.1 1.1 0 0 1-.32-.95q.13-1.85.22-4.1a175 175 0 0 0 .07-7.82q-.05-3.45-1.4-5.4a4.1 4.1 0 0 0-3.53-1.98q-1.95 0-3.36 2.05-1.43 2.04-1.43 5.73 0 2.54.07 5.61t.28 5.85q.1.66-.28 1.01a1.7 1.7 0 0 1-.92.44q-.6.1-1.3.14a14 14 0 0 1-2.61.03 10 10 0 0 1-1.72-.17q-.45-.09-.83-.44a1.1 1.1 0 0 1-.31-.95l.16-4.1q.07-2.13.1-4.2t-.03-3.62q-.05-3.45-1.39-5.4a4.1 4.1 0 0 0-3.53-1.98q-2 0-3.37 2.1t-1.47 5.78a141 141 0 0 0 .1 11.42q.05.6-.3.95-.36.35-.8.44-.6.1-1.42.14-.82.06-1.22.06m48.57.21q-3.8 0-6.12-1.8t-2.32-6.03q0-3.75 2.67-5.9 2.68-2.17 7.36-2.98a35 35 0 0 0 6.04-1.23q1.75-.62 1.75-1.97 0-.8-1.11-1.48-1.1-.7-3.74-.7-2.24 0-4.64.7-2.4.69-4.19 2.28-.55.8-1.26.45-.72-.34-.67-1.44.04-.55.14-1.53l.23-1.97.17-1.5q.16-1.19 1-1.53a30 30 0 0 1 8.97-1.3q5.73 0 8.9 2.47 3.16 2.46 3.66 7.9.15 1.9.3 4.7a937 937 0 0 1 .56 10.86q0 1.3-1.4 1.54-.5.14-1.25.2a18 18 0 0 1-4.49-.2 1.7 1.7 0 0 1-1.04-.57 1.4 1.4 0 0 1-.3-1.13l.22-1.3q.12-.8.19-1.59.09-.69-.33-.81t-.72.51a9 9 0 0 1-3.55 3.9 9.6 9.6 0 0 1-5.03 1.45m3.4-6.19q1.22 0 2.6-.64a6 6 0 0 0 2.31-1.88q.96-1.21.96-2.96 0-1.2-.72-1.97-.72-.78-2.47-.78a9 9 0 0 0-3.35.65 7 7 0 0 0-2.59 1.77q-1 1.13-1 2.67 0 1.68 1 2.42 1 .72 3.25.72m20.53 5.98q-.4 0-1.25-.06t-1.48-.14q-.45-.09-.78-.44a1.4 1.4 0 0 1-.31-.95l.01-7.69.08-6.1a161 161 0 0 1 .5-10.7q.15-1.09 1.1-1.24.54-.1 1.29-.14a18 18 0 0 1 4.23.14q.6.09.93.46.32.38.18.88l-.43 1.7q-.18.75-.18 1.74 0 .75.4.87.4.13.71-.67a8 8 0 0 1 3.41-4.08 10 10 0 0 1 4.97-1.25 11 11 0 0 1 4.44 1q.98.55.98 1.55a129 129 0 0 1-.14 5.78q-.05.94-.78 1.14-.72.2-1.27-.39a8 8 0 0 0-2.81-1.58q-1.47-.42-2.97-.42-1.85 0-3.47 1.03a7.4 7.4 0 0 0-2.62 2.94 10 10 0 0 0-.99 4.6q0 1.9.13 3.91.12 2.03.26 3.75.16 1.72.2 2.77.06.64-.32 1-.37.35-.81.44a45 45 0 0 1-3.2.15m34.85.21q-2.54 0-4.6-1a8 8 0 0 1-3.3-2.99 9.7 9.7 0 0 1-1.27-4.95 185 185 0 0 1 .19-8.4q.1-2.27.3-4.3a.7.7 0 0 0-.24-.66 1 1 0 0 0-.64-.25h-1.86q-.94 0-1.85.05-.54.06-.95-.36-.39-.44-.39-.99V39.7q0-.55.4-.94.4-.4.94-.4h3.7q.9 0 .9-.96a43 43 0 0 1 .2-3.93q.15-1.24 1.25-1.4a18 18 0 0 1 3.74-.14l1.25.14q.5.06.89.43a1 1 0 0 1 .3.97q-.06.99-.18 1.92a14 14 0 0 0-.12 1.97q0 1 .9 1l3.66-.02q2.06-.02 3.6-.08.57 0 .96.4.4.4.4.95v2.68q0 .55-.4.99-.4.42-.95.36-.65-.1-1.94-.14l-2.6-.1q-1.28-.06-2-.01-1.78 0-2.02 1.84-.2 2.6-.2 5.55-.01 2.94.04 5.12.1 1.95 1.1 2.78t2.45.82q.6 0 1.64-.22 1.04-.24 2.06-.55a6 6 0 0 0 1.47-.62q.66-.7 1.34-.35.7.35.66 1.4 0 1.09-.03 2l-.02 1.93q-.04 1.14-.9 1.55-.9.4-2.36.7-1.47.3-2.97.42-1.5.13-2.55.13m18.65-.21a29 29 0 0 1-3.28-.2 1.4 1.4 0 0 1-.83-.47 1.4 1.4 0 0 1-.33-.98 541 541 0 0 1 .36-19.9q0-1.09-.95-1.09h-2.1q-.54 0-.95-.39-.39-.4-.39-.95v-2q0-.55.4-.94.4-.4.94-.4h2.5q.34 0 .66-.2.33-.19.23-.6-.5-3.1.68-5.02a7 7 0 0 1 3.39-2.84 12.6 12.6 0 0 1 7.54-.61q1.5.3 2.7.84.8.3.8 1.35.05.85.05 1.89v1.89q0 1.07-.67 1.31-.68.23-1.33-.4-.55-.6-1.52-.97a5 5 0 0 0-1.76-.38q-1.25 0-2.03.67a2 2 0 0 0-.72 1.68q.06.75.98 1.15t2.07.4q1 0 1.89-.09.9-.07 1.84-.17.6-.1 1.03.3.42.4.42 1 .1 1.2 0 2.48 0 .55-.4.96-.4.39-.94.34l-2.92-.23q-1.77-.16-3.02-.16-.45 0-.73.33a1.2 1.2 0 0 0-.27.81q-.14 6.2.22 11.4l.63 8.6q.1.6-.27.95-.38.35-.83.44a24 24 0 0 1-3.1.2m17.86 0a25 25 0 0 1-2.98-.2q-1.1-.25-1.1-1.39a895 895 0 0 1 .41-26.55q.19-3.92.38-6.72.15-1.08 1.25-1.25.54-.09 1.25-.14a20 20 0 0 1 2.94 0q.94.05 1.45.14.54.07.86.49.33.42.23.97-.4 3.14-.68 7.36a237 237 0 0 0-.44 17.76q.07 4.4.33 7.94.04.6-.29.97-.31.37-.8.47a73 73 0 0 1-2.8.15m20.84.21q-3.98 0-7.16-1.52a11.5 11.5 0 0 1-5-4.6q-1.8-3.07-1.81-7.65 0-4.48 1.8-7.65a12 12 0 0 1 4.95-4.83 15 15 0 0 1 7.22-1.67q4.03 0 7.14 1.67a12 12 0 0 1 4.92 4.83q1.8 3.16 1.8 7.65 0 4.58-1.8 7.66a11.4 11.4 0 0 1-4.94 4.6 16 16 0 0 1-7.12 1.5m0-5.9a6.3 6.3 0 0 0 4.86-2.09q1.92-2.1 1.92-6.03 0-3.73-1.9-5.87a6.2 6.2 0 0 0-4.88-2.16 6.2 6.2 0 0 0-4.92 2.16q-1.87 2.14-1.86 5.87 0 3.95 1.92 6.03a6.3 6.3 0 0 0 4.86 2.1m25.18 5.69q-.54 0-1.5-.06-.94-.05-1.8-.14-.63-.09-1.13-.44a2.3 2.3 0 0 1-.75-.86 89 89 0 0 1-2.2-7.01q-1.1-4.05-1.95-8.53-.84-4.5-1.25-8.83-.14-1.2 1.2-1.45.75-.14 1.52-.18l1.22-.03q.4 0 1.16.07.75.04 1.34.14 1.44.25 1.5 1.39.04 1.35.22 3.1a91 91 0 0 0 .97 6.96q.3 1.56.55 2.6.4 1.6.75 2.63t.9 1.02q.6 0 .94-1 .36-1 .8-2.9a177 177 0 0 1 2.64-9.82 9 9 0 0 1 1.51-2.92q.83-.9 2.24-.9 1.39 0 2.26.96a8 8 0 0 1 1.52 2.86q.44 1.3.92 3.14a263 263 0 0 1 1.67 6.69q.55 1.89.88 2.89t.92 1q.54 0 .92-1.02t.72-2.62q.3-1.4.67-3.69t.7-4.73.38-4.25q.04-1.14 1.5-1.4.54-.09 1.3-.13a16 16 0 0 1 3.93.14q.56.09.93.46.37.38.26.99-.4 4.23-1.3 8.78a129 129 0 0 1-4.07 15.6q-.21.5-.75.85-.55.35-1.2.44-.75.1-1.72.14a28 28 0 0 1-2.94.03 14 14 0 0 1-1.77-.17q-.75-.09-1.28-.42a1.7 1.7 0 0 1-.72-.92q-.25-.9-.58-2.69l-.68-3.92q-.38-2.13-.8-4.06a29 29 0 0 0-.86-3.2q-.42-1.23-.81-1.24-.41 0-.83 1.28-.42 1.26-.84 3.23-.43 1.98-.8 4.11a315 315 0 0 1-1.22 6.49q-.4 1.1-2.05 1.34a44 44 0 0 1-3.14.2m0 0"/></defs><use href="#a"/><use href="#a"/></svg>