<svg xmlns="http://www.w3.org/2000/svg" style="max-height:500px" viewBox="29.71 5.24 371.42 372.77"><defs><clipPath id="f"><path d="M32 127h248v247H32Zm0 0"/></clipPath><clipPath id="g"><path d="M215.58 381.29 24.92 190.63l71.46-71.47 190.66 190.66Zm0 0"/></clipPath><clipPath id="i"><path d="m38.25 177.48 44.99-44.99c7.3-7.3 19.16-7.3 26.47 0l164.1 164.1c7.3 7.3 7.3 19.16 0 26.47l-45 45a18.7 18.7 0 0 1-26.47 0l-164.1-164.1a18.7 18.7 0 0 1 0-26.48m0 0"/></clipPath><clipPath id="l"><path d="M0 0h248v247H0Zm0 0"/></clipPath><clipPath id="n"><use href="#a"/></clipPath><clipPath id="o"><path d="M6.25 50.48 51.24 5.5c7.3-7.3 19.16-7.3 26.47 0l164.1 164.1c7.3 7.3 7.3 19.16 0 26.47l-45 45a18.7 18.7 0 0 1-26.47 0L6.24 76.96a18.7 18.7 0 0 1 0-26.48m0 0"/></clipPath><clipPath id="p"><use href="#a"/></clipPath><clipPath id="q"><path d="M183.58 254.29-6.99 63.72 64.48-7.74l190.56 190.57Zm0 0"/></clipPath><clipPath id="j"><path d="M0 0h248v247H0z"/></clipPath><clipPath id="s"><use href="#b"/></clipPath><clipPath id="t"><path d="M263.22 333.65 72.56 142.98l71.46-71.47 190.66 190.66Zm0 0"/></clipPath><clipPath id="u"><path d="m85.89 129.84 45-45c7.3-7.3 19.15-7.3 26.46 0l164.1 164.1a18.75 18.75 0 0 1 0 26.48l-45 44.99a18.7 18.7 0 0 1-26.46 0l-164.1-164.1a18.7 18.7 0 0 1 0-26.47m0 0"/></clipPath><clipPath id="w"><path d="M0 0h247v247H0Zm0 0"/></clipPath><clipPath id="x"><use href="#c"/></clipPath><clipPath id="y"><path d="m5.89 50.84 45-45c7.3-7.3 19.15-7.3 26.46 0l164.1 164.1a18.75 18.75 0 0 1 0 26.48l-45 44.99a18.7 18.7 0 0 1-26.46 0L5.89 77.31a18.7 18.7 0 0 1 0-26.47m0 0"/></clipPath><clipPath id="z"><use href="#c"/></clipPath><clipPath id="A"><path d="M183.22 254.65-7.34 64.08 64.12-7.38l190.56 190.56Zm0 0"/></clipPath><clipPath id="v"><path d="M0 0h247v247H0z"/></clipPath><clipPath id="C"><path d="M128 31h247v248H128Zm0 0"/></clipPath><clipPath id="D"><path d="M310.86 286 120.2 95.34l71.46-71.46 190.66 190.66Zm0 0"/></clipPath><clipPath id="E"><path d="m133.53 82.2 45-45c7.3-7.3 19.15-7.3 26.46 0l164.1 164.1a18.73 18.73 0 0 1 0 26.47l-45 45a18.7 18.7 0 0 1-26.46 0l-164.1-164.1a18.7 18.7 0 0 1 0-26.47m0 0"/></clipPath><clipPath id="K"><path d="M0 0h247v248H0Zm0 0"/></clipPath><clipPath id="L"><use href="#d"/></clipPath><clipPath id="M"><path d="m5.53 51.2 45-45c7.3-7.3 19.15-7.3 26.46 0l164.1 164.1a18.73 18.73 0 0 1 0 26.47l-45 45a18.7 18.7 0 0 1-26.46 0L5.53 77.67a18.7 18.7 0 0 1 0-26.47m0 0"/></clipPath><clipPath id="N"><use href="#d"/></clipPath><clipPath id="O"><path d="M182.86 255-7.7 64.44 63.76-7.02l190.57 190.56Zm0 0"/></clipPath><clipPath id="F"><path d="M0 0h247v248H0z"/></clipPath><clipPath id="Q"><path d="M175 7h224v224H175Zm0 0"/></clipPath><clipPath id="R"><path d="M358.5 238.36 167.75 47.61 215.4-.03l190.75 190.75Zm0 0"/></clipPath><clipPath id="S"><path d="m181.17 34.56 21.17-21.17a18.7 18.7 0 0 1 26.47 0l164.1 164.1a18.7 18.7 0 0 1 0 26.46l-21.17 21.18a18.7 18.7 0 0 1-26.47 0l-164.1-164.1a18.7 18.7 0 0 1 0-26.47m0 0"/></clipPath><clipPath id="U"><path d="M0 0h224v224H0Zm0 0"/></clipPath><clipPath id="V"><path d="M183.5 231.36-7.25 40.61 40.4-7.03l190.75 190.75Zm0 0"/></clipPath><clipPath id="W"><path d="M6.17 27.56 27.34 6.39a18.7 18.7 0 0 1 26.47 0l164.1 164.1a18.7 18.7 0 0 1 0 26.46l-21.17 21.18a18.7 18.7 0 0 1-26.47 0L6.17 54.03a18.7 18.7 0 0 1 0-26.47m0 0"/></clipPath><clipPath id="X"><use href="#e"/></clipPath><clipPath id="Y"><use href="#e"/></clipPath><clipPath id="T"><path d="M0 0h224v224H0z"/></clipPath><clipPath id="aa"><path d="M53.07 177.1h141.98v175.8H53.07Zm0 0"/></clipPath><clipPath id="ab"><path d="M71.79 177.1h104.55a18.7 18.7 0 0 1 18.71 18.71v138.37a18.7 18.7 0 0 1-18.71 18.71H71.79a18.7 18.7 0 0 1-18.72-18.71V195.8a18.7 18.7 0 0 1 18.73-18.7Zm0 0"/></clipPath><clipPath id="ad"><path d="M.07.1h141.98v175.79H.07Zm0 0"/></clipPath><clipPath id="ae"><path d="M18.79.1h104.55a18.7 18.7 0 0 1 18.71 18.71v138.37a18.7 18.7 0 0 1-18.71 18.71H18.79A18.7 18.7 0 0 1 .07 157.18V18.8A18.7 18.7 0 0 1 18.8.1m0 0"/></clipPath><clipPath id="ac"><path d="M0 0h143v176H0z"/></clipPath><path id="a" d="M183.58 254.29-7.08 63.63 64.38-7.84l190.66 190.66Zm0 0"/><path id="b" d="M80 79h247v247H80Zm0 0"/><path id="c" d="M183.22 254.65-7.44 63.98 64.02-7.48l190.66 190.66Zm0 0"/><path id="d" d="M182.86 255-7.8 64.34 63.66-7.12l190.66 190.66Zm0 0"/><path id="e" d="M183.5 231.36-7.06 40.8 40.58-6.85l190.57 190.57Zm0 0"/><linearGradient id="r" x1="341.33" x2="341.33" y1="-320.11" y2="576.11" gradientTransform="rotate(225 144.46 89.12)scale(.4)" gradientUnits="userSpaceOnUse"><stop offset="0" stop-color="#bb2eff"/><stop offset=".25" stop-color="#bb2eff"/><stop offset=".31" stop-color="#bb2eff"/><stop offset=".34" stop-color="#bb2eff"/><stop offset=".36" stop-color="#bb2eff"/><stop offset=".36" stop-color="#ba2dff"/><stop offset=".37" stop-color="#ba2cff"/><stop offset=".37" stop-color="#b92bfe"/><stop offset=".38" stop-color="#b92afe"/><stop offset=".38" stop-color="#b829fe"/><stop offset=".38" stop-color="#b828fe"/><stop offset=".39" stop-color="#b727fe"/><stop offset=".39" stop-color="#b726fd"/><stop offset=".4" stop-color="#b725fd"/><stop offset=".4" stop-color="#b624fd"/><stop offset=".4" stop-color="#b623fd"/><stop offset=".41" stop-color="#b522fd"/><stop offset=".41" stop-color="#b521fc"/><stop offset=".41" stop-color="#b420fc"/><stop offset=".42" stop-color="#b420fc"/><stop offset=".42" stop-color="#b31ffc"/><stop offset=".43" stop-color="#b31efc"/><stop offset=".43" stop-color="#b21dfb"/><stop offset=".43" stop-color="#b21cfb"/><stop offset=".44" stop-color="#b11bfb"/><stop offset=".44" stop-color="#b11afb"/><stop offset=".45" stop-color="#b119fb"/><stop offset=".45" stop-color="#b018fa"/><stop offset=".45" stop-color="#b017fa"/><stop offset=".46" stop-color="#af16fa"/><stop offset=".46" stop-color="#af15fa"/><stop offset=".47" stop-color="#ae14fa"/><stop offset=".47" stop-color="#ae13fa"/><stop offset=".47" stop-color="#ad13f9"/><stop offset=".48" stop-color="#ad12f9"/><stop offset=".48" stop-color="#ac11f9"/><stop offset=".48" stop-color="#ac10f9"/><stop offset=".49" stop-color="#ab0ff9"/><stop offset=".49" stop-color="#ab0ef8"/><stop offset=".5" stop-color="#aa0df8"/><stop offset=".5" stop-color="#aa0cf8"/><stop offset=".5" stop-color="#a80cf5"/><stop offset=".51" stop-color="#a60bf2"/><stop offset=".51" stop-color="#a40bef"/><stop offset=".52" stop-color="#a20bec"/><stop offset=".52" stop-color="#9f0ae9"/><stop offset=".52" stop-color="#9d0ae6"/><stop offset=".53" stop-color="#9b0ae3"/><stop offset=".53" stop-color="#9909e0"/><stop offset=".54" stop-color="#9709dd"/><stop offset=".54" stop-color="#9509da"/><stop offset=".54" stop-color="#9308d7"/><stop offset=".55" stop-color="#9108d4"/><stop offset=".55" stop-color="#8f08d1"/><stop offset=".56" stop-color="#8d07ce"/><stop offset=".56" stop-color="#8a07cb"/><stop offset=".56" stop-color="#8807c8"/><stop offset=".57" stop-color="#8606c5"/><stop offset=".57" stop-color="#8406c2"/><stop offset=".57" stop-color="#8206bf"/><stop offset=".58" stop-color="#8005bc"/><stop offset=".58" stop-color="#7e05b9"/><stop offset=".59" stop-color="#7c05b6"/><stop offset=".59" stop-color="#7a04b3"/><stop offset=".59" stop-color="#7704b0"/><stop offset=".6" stop-color="#7504ad"/><stop offset=".6" stop-color="#7303aa"/><stop offset=".6" stop-color="#7103a8"/><stop offset=".61" stop-color="#6f03a5"/><stop offset=".61" stop-color="#6d02a2"/><stop offset=".62" stop-color="#6b029f"/><stop offset=".62" stop-color="#69029c"/><stop offset=".63" stop-color="#670199"/><stop offset=".63" stop-color="#650196"/><stop offset=".63" stop-color="#620193"/><stop offset=".64" stop-color="#600190"/><stop offset=".64" stop-color="#5e008d"/><stop offset=".65" stop-color="#5e008c"/><stop offset=".65" stop-color="#5d008b"/><stop offset=".66" stop-color="#5d008b"/><stop offset=".69" stop-color="#5d008b"/><stop offset=".75" stop-color="#5d008b"/><stop offset="1" stop-color="#5d008b"/></linearGradient><linearGradient id="B" x1="341.33" x2="341.33" y1="-320.11" y2="576.11" gradientTransform="rotate(225 144.35 89.38)scale(.4)" gradientUnits="userSpaceOnUse"><stop offset="0" stop-color="#9a4cff"/><stop offset=".25" stop-color="#9a4cff"/><stop offset=".31" stop-color="#9a4cff"/><stop offset=".34" stop-color="#9a4cff"/><stop offset=".36" stop-color="#9a4cff"/><stop offset=".36" stop-color="#994aff"/><stop offset=".37" stop-color="#9849ff"/><stop offset=".37" stop-color="#9848ff"/><stop offset=".38" stop-color="#9747ff"/><stop offset=".38" stop-color="#9646ff"/><stop offset=".38" stop-color="#9644ff"/><stop offset=".39" stop-color="#9543ff"/><stop offset=".39" stop-color="#9442ff"/><stop offset=".4" stop-color="#9441ff"/><stop offset=".4" stop-color="#9340ff"/><stop offset=".4" stop-color="#923fff"/><stop offset=".41" stop-color="#923eff"/><stop offset=".41" stop-color="#913cff"/><stop offset=".41" stop-color="#903bff"/><stop offset=".42" stop-color="#903aff"/><stop offset=".42" stop-color="#8f39ff"/><stop offset=".43" stop-color="#8e38ff"/><stop offset=".43" stop-color="#8e37ff"/><stop offset=".43" stop-color="#8d36ff"/><stop offset=".44" stop-color="#8c34ff"/><stop offset=".44" stop-color="#8c33ff"/><stop offset=".45" stop-color="#8b32ff"/><stop offset=".45" stop-color="#8b31ff"/><stop offset=".45" stop-color="#8a30ff"/><stop offset=".46" stop-color="#892fff"/><stop offset=".46" stop-color="#892dff"/><stop offset=".47" stop-color="#882cff"/><stop offset=".47" stop-color="#872bff"/><stop offset=".47" stop-color="#872aff"/><stop offset=".48" stop-color="#8629ff"/><stop offset=".48" stop-color="#8528ff"/><stop offset=".48" stop-color="#8527ff"/><stop offset=".49" stop-color="#8425ff"/><stop offset=".49" stop-color="#8324ff"/><stop offset=".5" stop-color="#8323ff"/><stop offset=".5" stop-color="#8222ff"/><stop offset=".5" stop-color="#8121fd"/><stop offset=".51" stop-color="#7f20fb"/><stop offset=".51" stop-color="#7e1ffa"/><stop offset=".52" stop-color="#7d1ef8"/><stop offset=".52" stop-color="#7b1df6"/><stop offset=".52" stop-color="#7a1cf4"/><stop offset=".53" stop-color="#791bf2"/><stop offset=".53" stop-color="#771bf1"/><stop offset=".54" stop-color="#761aef"/><stop offset=".54" stop-color="#7519ed"/><stop offset=".54" stop-color="#7318eb"/><stop offset=".55" stop-color="#7217e9"/><stop offset=".55" stop-color="#7116e8"/><stop offset=".56" stop-color="#6f15e6"/><stop offset=".56" stop-color="#6e14e4"/><stop offset=".56" stop-color="#6d13e2"/><stop offset=".57" stop-color="#6b12e0"/><stop offset=".57" stop-color="#6a11df"/><stop offset=".57" stop-color="#6910dd"/><stop offset=".58" stop-color="#670fdb"/><stop offset=".58" stop-color="#660ed9"/><stop offset=".59" stop-color="#650ed7"/><stop offset=".59" stop-color="#630dd5"/><stop offset=".59" stop-color="#620cd4"/><stop offset=".6" stop-color="#600bd2"/><stop offset=".6" stop-color="#5f0ad0"/><stop offset=".6" stop-color="#5e09ce"/><stop offset=".61" stop-color="#5c08cc"/><stop offset=".61" stop-color="#5b07cb"/><stop offset=".62" stop-color="#5a06c9"/><stop offset=".62" stop-color="#5805c7"/><stop offset=".63" stop-color="#5704c5"/><stop offset=".63" stop-color="#5603c3"/><stop offset=".63" stop-color="#5402c2"/><stop offset=".64" stop-color="#5301c0"/><stop offset=".64" stop-color="#5201be"/><stop offset=".65" stop-color="#5100be"/><stop offset=".65" stop-color="#5100bd"/><stop offset=".66" stop-color="#5100bd"/><stop offset=".69" stop-color="#5100bd"/><stop offset=".75" stop-color="#5100bd"/><stop offset="1" stop-color="#5100bd"/></linearGradient><linearGradient id="P" x1="341.33" x2="341.33" y1="-320.11" y2="576.11" gradientTransform="rotate(225 144.25 89.63)scale(.4)" gradientUnits="userSpaceOnUse"><stop offset="0" stop-color="#436fff"/><stop offset=".25" stop-color="#436fff"/><stop offset=".31" stop-color="#436fff"/><stop offset=".34" stop-color="#436fff"/><stop offset=".36" stop-color="#436fff"/><stop offset=".36" stop-color="#416eff"/><stop offset=".37" stop-color="#406dff"/><stop offset=".37" stop-color="#3f6cff"/><stop offset=".38" stop-color="#3e6bff"/><stop offset=".38" stop-color="#3d6aff"/><stop offset=".38" stop-color="#3c69ff"/><stop offset=".39" stop-color="#3b68ff"/><stop offset=".39" stop-color="#3a67ff"/><stop offset=".4" stop-color="#3966ff"/><stop offset=".4" stop-color="#3765ff"/><stop offset=".4" stop-color="#3664ff"/><stop offset=".41" stop-color="#3563ff"/><stop offset=".41" stop-color="#3462ff"/><stop offset=".41" stop-color="#3361ff"/><stop offset=".42" stop-color="#3261ff"/><stop offset=".42" stop-color="#3160ff"/><stop offset=".43" stop-color="#305fff"/><stop offset=".43" stop-color="#2f5eff"/><stop offset=".43" stop-color="#2e5dff"/><stop offset=".44" stop-color="#2d5cff"/><stop offset=".44" stop-color="#2b5bff"/><stop offset=".45" stop-color="#2a5aff"/><stop offset=".45" stop-color="#2959ff"/><stop offset=".45" stop-color="#2858ff"/><stop offset=".46" stop-color="#2757ff"/><stop offset=".46" stop-color="#2656ff"/><stop offset=".47" stop-color="#2555ff"/><stop offset=".47" stop-color="#2454ff"/><stop offset=".47" stop-color="#2354ff"/><stop offset=".48" stop-color="#2253ff"/><stop offset=".48" stop-color="#2052ff"/><stop offset=".48" stop-color="#1f51ff"/><stop offset=".49" stop-color="#1e50ff"/><stop offset=".49" stop-color="#1d4fff"/><stop offset=".5" stop-color="#1c4eff"/><stop offset=".5" stop-color="#1b4dff"/><stop offset=".5" stop-color="#1a4cfd"/><stop offset=".51" stop-color="#1a4bfb"/><stop offset=".51" stop-color="#194af9"/><stop offset=".52" stop-color="#1849f8"/><stop offset=".52" stop-color="#1748f6"/><stop offset=".52" stop-color="#1747f4"/><stop offset=".53" stop-color="#1646f2"/><stop offset=".53" stop-color="#1545f0"/><stop offset=".54" stop-color="#1444ee"/><stop offset=".54" stop-color="#1443ec"/><stop offset=".54" stop-color="#1342eb"/><stop offset=".55" stop-color="#1241e9"/><stop offset=".55" stop-color="#1140e7"/><stop offset=".56" stop-color="#113fe5"/><stop offset=".56" stop-color="#103ee3"/><stop offset=".56" stop-color="#0f3de1"/><stop offset=".57" stop-color="#0e3cdf"/><stop offset=".57" stop-color="#0e3bde"/><stop offset=".57" stop-color="#0d3adc"/><stop offset=".58" stop-color="#0c39da"/><stop offset=".58" stop-color="#0b38d8"/><stop offset=".59" stop-color="#0b37d6"/><stop offset=".59" stop-color="#0a36d4"/><stop offset=".59" stop-color="#0935d2"/><stop offset=".6" stop-color="#0934d0"/><stop offset=".6" stop-color="#0833cf"/><stop offset=".6" stop-color="#0732cd"/><stop offset=".61" stop-color="#0631cb"/><stop offset=".61" stop-color="#0630c9"/><stop offset=".62" stop-color="#052fc7"/><stop offset=".62" stop-color="#042ec5"/><stop offset=".63" stop-color="#032dc3"/><stop offset=".63" stop-color="#032dc2"/><stop offset=".63" stop-color="#022cc0"/><stop offset=".64" stop-color="#012bbe"/><stop offset=".64" stop-color="#002abc"/><stop offset=".65" stop-color="#0029bc"/><stop offset=".65" stop-color="#0029bb"/><stop offset=".66" stop-color="#0029bb"/><stop offset=".69" stop-color="#0029bb"/><stop offset=".75" stop-color="#0029bb"/><stop offset="1" stop-color="#0029bb"/></linearGradient><linearGradient id="Z" x1="512" x2="512" y1="-480.16" y2="736.16" gradientTransform="rotate(225 139.67 77.68)scale(.26)" gradientUnits="userSpaceOnUse"><stop offset="0" stop-color="#00d1ff"/><stop offset=".25" stop-color="#00d1ff"/><stop offset=".38" stop-color="#00d1ff"/><stop offset=".39" stop-color="#00d1ff"/><stop offset=".4" stop-color="#00d1ff"/><stop offset=".4" stop-color="#02d0ff"/><stop offset=".41" stop-color="#03d0ff"/><stop offset=".41" stop-color="#04d0ff"/><stop offset=".41" stop-color="#05d0ff"/><stop offset=".42" stop-color="#06cfff"/><stop offset=".42" stop-color="#07cfff"/><stop offset=".43" stop-color="#08cfff"/><stop offset=".43" stop-color="#09ceff"/><stop offset=".43" stop-color="#0aceff"/><stop offset=".44" stop-color="#0bceff"/><stop offset=".44" stop-color="#0ccdff"/><stop offset=".45" stop-color="#0dcdff"/><stop offset=".45" stop-color="#0ecdff"/><stop offset=".45" stop-color="#10cdff"/><stop offset=".46" stop-color="#1cf"/><stop offset=".46" stop-color="#12ccff"/><stop offset=".47" stop-color="#13ccff"/><stop offset=".47" stop-color="#14cbff"/><stop offset=".47" stop-color="#15cbff"/><stop offset=".48" stop-color="#16cbff"/><stop offset=".48" stop-color="#17caff"/><stop offset=".48" stop-color="#18caff"/><stop offset=".49" stop-color="#19caff"/><stop offset=".49" stop-color="#1acaff"/><stop offset=".5" stop-color="#1bc9ff"/><stop offset=".5" stop-color="#1cc9ff"/><stop offset=".5" stop-color="#1bc8ff"/><stop offset=".51" stop-color="#1ac7ff"/><stop offset=".51" stop-color="#19c6ff"/><stop offset=".52" stop-color="#18c6ff"/><stop offset=".52" stop-color="#17c5ff"/><stop offset=".52" stop-color="#16c4ff"/><stop offset=".53" stop-color="#15c3ff"/><stop offset=".53" stop-color="#14c2ff"/><stop offset=".54" stop-color="#13c1ff"/><stop offset=".54" stop-color="#12c0ff"/><stop offset=".54" stop-color="#11c0ff"/><stop offset=".55" stop-color="#10bfff"/><stop offset=".55" stop-color="#0ebeff"/><stop offset=".56" stop-color="#0dbdff"/><stop offset=".56" stop-color="#0cbcff"/><stop offset=".56" stop-color="#0bbbff"/><stop offset=".57" stop-color="#0abaff"/><stop offset=".57" stop-color="#09baff"/><stop offset=".57" stop-color="#08b9ff"/><stop offset=".58" stop-color="#07b8ff"/><stop offset=".58" stop-color="#06b7ff"/><stop offset=".59" stop-color="#05b6ff"/><stop offset=".59" stop-color="#04b5ff"/><stop offset=".59" stop-color="#03b4ff"/><stop offset=".6" stop-color="#02b4ff"/><stop offset=".6" stop-color="#01b3ff"/><stop offset=".61" stop-color="#00b2ff"/><stop offset=".63" stop-color="#00b2ff"/><stop offset=".75" stop-color="#00b2ff"/><stop offset="1" stop-color="#00b2ff"/></linearGradient><radialGradient id="af" cx="0" cy="0" r="225.97" fx="0" fy="0" gradientTransform="translate(.07 .1)" gradientUnits="userSpaceOnUse"><stop offset="0" stop-color="#2379f5"/><stop offset=".01" stop-color="#2478f5"/><stop offset=".02" stop-color="#2477f5"/><stop offset=".03" stop-color="#2576f5"/><stop offset=".04" stop-color="#2575f5"/><stop offset=".06" stop-color="#2674f5"/><stop offset=".07" stop-color="#2673f5"/><stop offset=".08" stop-color="#2772f6"/><stop offset=".09" stop-color="#2771f6"/><stop offset=".1" stop-color="#2870f6"/><stop offset=".11" stop-color="#286ff6"/><stop offset=".13" stop-color="#296ef6"/><stop offset=".14" stop-color="#296df6"/><stop offset=".15" stop-color="#296cf6"/><stop offset=".16" stop-color="#2a6bf6"/><stop offset=".17" stop-color="#2a6af6"/><stop offset=".18" stop-color="#2b69f6"/><stop offset=".2" stop-color="#2b68f6"/><stop offset=".21" stop-color="#2c67f6"/><stop offset=".22" stop-color="#2c66f6"/><stop offset=".23" stop-color="#2d65f6"/><stop offset=".24" stop-color="#2d64f6"/><stop offset=".25" stop-color="#2e63f7"/><stop offset=".26" stop-color="#2e63f7"/><stop offset=".27" stop-color="#2f62f7"/><stop offset=".28" stop-color="#2f61f7"/><stop offset=".28" stop-color="#2f61f7"/><stop offset=".29" stop-color="#2f60f7"/><stop offset=".3" stop-color="#305ff7"/><stop offset=".31" stop-color="#305ff7"/><stop offset=".32" stop-color="#305ef7"/><stop offset=".32" stop-color="#315df7"/><stop offset=".33" stop-color="#315df7"/><stop offset=".34" stop-color="#305cf6"/><stop offset=".34" stop-color="#305cf5"/><stop offset=".34" stop-color="#2f5bf4"/><stop offset=".35" stop-color="#2f5af4"/><stop offset=".35" stop-color="#2e5af3"/><stop offset=".35" stop-color="#2d59f2"/><stop offset=".36" stop-color="#2d59f1"/><stop offset=".36" stop-color="#2c58f0"/><stop offset=".37" stop-color="#2c57f0"/><stop offset=".37" stop-color="#2b57ef"/><stop offset=".38" stop-color="#2b56ee"/><stop offset=".38" stop-color="#2a55ed"/><stop offset=".38" stop-color="#2955ec"/><stop offset=".39" stop-color="#2954ec"/><stop offset=".39" stop-color="#2854eb"/><stop offset=".4" stop-color="#2853ea"/><stop offset=".4" stop-color="#2752e9"/><stop offset=".4" stop-color="#2752e8"/><stop offset=".41" stop-color="#2651e8"/><stop offset=".41" stop-color="#2550e7"/><stop offset=".41" stop-color="#2550e6"/><stop offset=".42" stop-color="#244fe5"/><stop offset=".42" stop-color="#244fe5"/><stop offset=".43" stop-color="#234ee4"/><stop offset=".43" stop-color="#234de3"/><stop offset=".43" stop-color="#224de2"/><stop offset=".44" stop-color="#214ce1"/><stop offset=".44" stop-color="#214be1"/><stop offset=".45" stop-color="#204be0"/><stop offset=".45" stop-color="#204adf"/><stop offset=".45" stop-color="#1f4ade"/><stop offset=".46" stop-color="#1f49dd"/><stop offset=".46" stop-color="#1e48dd"/><stop offset=".47" stop-color="#1d48dc"/><stop offset=".47" stop-color="#1d47db"/><stop offset=".47" stop-color="#1c47da"/><stop offset=".48" stop-color="#1c46d9"/><stop offset=".48" stop-color="#1b45d9"/><stop offset=".48" stop-color="#1b45d8"/><stop offset=".49" stop-color="#1a44d7"/><stop offset=".49" stop-color="#1943d6"/><stop offset=".5" stop-color="#1943d5"/><stop offset=".5" stop-color="#1842d5"/><stop offset=".5" stop-color="#1842d4"/><stop offset=".51" stop-color="#1741d3"/><stop offset=".51" stop-color="#1640d2"/><stop offset=".52" stop-color="#1640d1"/><stop offset=".52" stop-color="#153fd1"/><stop offset=".52" stop-color="#153ed0"/><stop offset=".53" stop-color="#143ecf"/><stop offset=".53" stop-color="#143dce"/><stop offset=".54" stop-color="#133dcd"/><stop offset=".54" stop-color="#123ccd"/><stop offset=".54" stop-color="#123bcc"/><stop offset=".55" stop-color="#113bcb"/><stop offset=".55" stop-color="#113aca"/><stop offset=".56" stop-color="#103ac9"/><stop offset=".56" stop-color="#1039c9"/><stop offset=".56" stop-color="#0f38c8"/><stop offset=".57" stop-color="#0e38c7"/><stop offset=".57" stop-color="#0e37c6"/><stop offset=".57" stop-color="#0d36c5"/><stop offset=".58" stop-color="#0d36c5"/><stop offset=".58" stop-color="#0c35c4"/><stop offset=".59" stop-color="#0c35c3"/><stop offset=".59" stop-color="#0b34c2"/><stop offset=".59" stop-color="#0a33c2"/><stop offset=".6" stop-color="#0a33c1"/><stop offset=".6" stop-color="#0932c0"/><stop offset=".6" stop-color="#0931bf"/><stop offset=".61" stop-color="#0831be"/><stop offset=".61" stop-color="#0830be"/><stop offset=".62" stop-color="#0730bd"/><stop offset=".62" stop-color="#062fbc"/><stop offset=".63" stop-color="#062ebb"/><stop offset=".63" stop-color="#052eba"/><stop offset=".63" stop-color="#052dba"/><stop offset=".64" stop-color="#042db9"/><stop offset=".64" stop-color="#042cb8"/><stop offset=".65" stop-color="#032bb7"/><stop offset=".65" stop-color="#022bb6"/><stop offset=".65" stop-color="#022ab6"/><stop offset=".66" stop-color="#0129b5"/><stop offset=".66" stop-color="#0129b4"/><stop offset=".66" stop-color="#0128b3"/><stop offset=".67" stop-color="#0128b3"/><stop offset=".68" stop-color="#0128b3"/><stop offset=".68" stop-color="#0227b3"/><stop offset=".68" stop-color="#0327b3"/><stop offset=".69" stop-color="#0327b3"/><stop offset=".69" stop-color="#0427b3"/><stop offset=".69" stop-color="#0427b4"/><stop offset=".7" stop-color="#0527b4"/><stop offset=".7" stop-color="#0526b4"/><stop offset=".71" stop-color="#0626b4"/><stop offset=".71" stop-color="#0626b4"/><stop offset=".71" stop-color="#0726b4"/><stop offset=".72" stop-color="#0726b4"/><stop offset=".72" stop-color="#0826b4"/><stop offset=".73" stop-color="#0825b4"/><stop offset=".73" stop-color="#0925b4"/><stop offset=".73" stop-color="#0925b4"/><stop offset=".74" stop-color="#0a25b4"/><stop offset=".74" stop-color="#0a25b4"/><stop offset=".75" stop-color="#0b25b4"/><stop offset=".75" stop-color="#0b24b5"/><stop offset=".75" stop-color="#0c24b5"/><stop offset=".76" stop-color="#0d24b5"/><stop offset=".76" stop-color="#0d24b5"/><stop offset=".77" stop-color="#0e24b5"/><stop offset=".77" stop-color="#0e24b5"/><stop offset=".77" stop-color="#0f23b5"/><stop offset=".78" stop-color="#0f23b5"/><stop offset=".78" stop-color="#1023b5"/><stop offset=".79" stop-color="#1023b5"/><stop offset=".79" stop-color="#1123b5"/><stop offset=".79" stop-color="#1123b5"/><stop offset=".8" stop-color="#1222b5"/><stop offset=".8" stop-color="#1222b5"/><stop offset=".81" stop-color="#1322b6"/><stop offset=".81" stop-color="#1322b6"/><stop offset=".81" stop-color="#1422b6"/><stop offset=".82" stop-color="#1422b6"/><stop offset=".82" stop-color="#1521b6"/><stop offset=".82" stop-color="#1621b6"/><stop offset=".83" stop-color="#1621b6"/><stop offset=".83" stop-color="#1721b6"/><stop offset=".84" stop-color="#1721b6"/><stop offset=".84" stop-color="#1821b6"/><stop offset=".84" stop-color="#1820b6"/><stop offset=".85" stop-color="#1920b6"/><stop offset=".85" stop-color="#1920b6"/><stop offset=".85" stop-color="#1a20b6"/><stop offset=".86" stop-color="#1a20b7"/><stop offset=".86" stop-color="#1b20b7"/><stop offset=".87" stop-color="#1b20b7"/><stop offset=".87" stop-color="#1c1fb7"/><stop offset=".88" stop-color="#1c1fb7"/><stop offset=".88" stop-color="#1d1fb7"/><stop offset=".88" stop-color="#1d1fb7"/><stop offset=".89" stop-color="#1e1fb7"/><stop offset=".89" stop-color="#1e1fb7"/><stop offset=".9" stop-color="#1f1eb7"/><stop offset=".9" stop-color="#201eb7"/><stop offset=".9" stop-color="#201eb7"/><stop offset=".91" stop-color="#211eb7"/><stop offset=".91" stop-color="#211eb7"/><stop offset=".91" stop-color="#221eb7"/><stop offset=".92" stop-color="#221db8"/><stop offset=".92" stop-color="#231db8"/><stop offset=".93" stop-color="#231db8"/><stop offset=".93" stop-color="#241db8"/><stop offset=".93" stop-color="#241db8"/><stop offset=".94" stop-color="#251db8"/><stop offset=".94" stop-color="#251cb8"/><stop offset=".94" stop-color="#261cb8"/><stop offset=".95" stop-color="#261cb8"/><stop offset=".95" stop-color="#271cb8"/><stop offset=".96" stop-color="#271cb8"/><stop offset=".96" stop-color="#281cb8"/><stop offset=".96" stop-color="#291bb8"/><stop offset=".97" stop-color="#291bb8"/><stop offset=".97" stop-color="#2a1bb9"/><stop offset=".98" stop-color="#2a1bb9"/><stop offset=".98" stop-color="#2b1bb9"/><stop offset=".98" stop-color="#2b1bb9"/><stop offset=".99" stop-color="#2c1ab9"/><stop offset=".99" stop-color="#2c1ab9"/><stop offset="1" stop-color="#2d1ab9"/><stop offset="1" stop-color="#2d1ab9"/></radialGradient></defs><g clip-path="url(#f)"><g clip-path="url(#g)"><g clip-path="url(#i)"><g clip-path="url(#j)" transform="translate(32 127)"><g clip-path="url(#l)"><g clip-path="url(#n)"><g clip-path="url(#o)"><g clip-path="url(#p)"><g clip-path="url(#q)"><path fill="url(#r)" d="M124.03 373.45 374.2 123.27 124.03-126.9l-250.19 250.18Zm0 0"/></g></g></g></g></g></g></g></g></g><g clip-path="url(#s)"><g clip-path="url(#t)"><g clip-path="url(#u)"><g clip-path="url(#v)" transform="translate(80 79)"><g clip-path="url(#w)"><g clip-path="url(#x)"><g clip-path="url(#y)"><g clip-path="url(#z)"><g clip-path="url(#A)"><path fill="url(#B)" d="m123.67 373.81 250.18-250.18-250.18-250.18-250.18 250.18Zm0 0"/></g></g></g></g></g></g></g></g></g><g clip-path="url(#C)"><g clip-path="url(#D)"><g clip-path="url(#E)"><g clip-path="url(#F)" transform="translate(128 31)"><g clip-path="url(#K)"><g clip-path="url(#L)"><g clip-path="url(#M)"><g clip-path="url(#N)"><g clip-path="url(#O)"><path fill="url(#P)" d="m123.3 374.17 250.2-250.18L123.3-126.2l-250.17 250.18Zm0 0"/></g></g></g></g></g></g></g></g></g><g clip-path="url(#Q)"><g clip-path="url(#R)"><g clip-path="url(#S)"><g clip-path="url(#T)" transform="translate(175 7)"><g clip-path="url(#U)"><g clip-path="url(#V)"><g clip-path="url(#W)"><g clip-path="url(#X)"><g clip-path="url(#Y)"><path fill="url(#Z)" d="M112.04 338.62 338.4 112.26 112.04-114.1l-226.36 226.36Zm0 0"/></g></g></g></g></g></g></g></g></g><g clip-path="url(#aa)"><g clip-path="url(#ab)"><g clip-path="url(#ac)" transform="translate(53 177)"><g clip-path="url(#ad)"><g clip-path="url(#ae)"><path fill="url(#af)" d="M.07.1v175.79h141.98V.09Zm0 0"/></g></g></g></g></g><path fill="#fff" d="M125.4 330.1q-7.72 0-17.41-1.17a183 183 0 0 1-19.15-3.3q-9.44-2.17-16.8-4.68-3.05-1.08-3.05-5.4a726 726 0 0 1 .36-23.54q0-3.76 2.51-4.65 2.52-.9 4.5 1.6A52 52 0 0 0 98 302.99a82 82 0 0 0 26.52 4.31q11.85 0 18.95-3.5t7.1-10.34q0-5.2-4.23-8.8-4.2-3.6-11.23-6.37a188 188 0 0 0-15.36-5.32 342 342 0 0 1-16.62-5.46 82 82 0 0 1-15.28-7.28 36 36 0 0 1-11.22-10.52q-4.22-6.2-4.22-15 0-11.31 7-18.67t19.04-10.97 26.96-3.6q10.24 0 21.37 1.99a88 88 0 0 1 19.77 5.73q3.23 1.8 3.23 5.22v20.13q0 3.4-2.42 4.58-2.43 1.16-4.4-1.18a52 52 0 0 0-17.07-10.32 55 55 0 0 0-19.22-3.5q-6.65 0-12.67 1.34-6.02 1.35-9.8 4.05-3.75 2.68-3.76 7 0 4.84 4.31 8.26 4.32 3.41 11.31 6.11 7.02 2.7 15.46 5.4a335 335 0 0 1 16.8 5.84 85 85 0 0 1 15.35 7.54 39 39 0 0 1 11.33 10.5q4.31 6.12 4.31 14.74 0 16.53-14.37 25.87-14.38 9.35-39.53 9.35m0 0"/></svg>